<mxfile host="app.diagrams.net" modified="2021-07-02T17:43:19.386Z" agent="5.0 (Windows NT 10.0; Win64; x64) AppleWebKit/537.36 (KHTML, like Gecko) Chrome/91.0.4472.124 Safari/537.36" etag="5j_DtXC3LDBJvKhShfOj" version="14.8.3" type="github">
  <diagram id="txi2YaepdJMHssst4SGv" name="Page-1">
    <mxGraphModel dx="2062" dy="1055" grid="1" gridSize="10" guides="1" tooltips="1" connect="1" arrows="1" fold="1" page="1" pageScale="1" pageWidth="827" pageHeight="1169" math="0" shadow="0">
      <root>
        <mxCell id="0" />
        <mxCell id="1" parent="0" />
        <mxCell id="Lu7zV6Tx2Fdpjb5Isjd1-1" value="Program View Service" style="swimlane;fontSize=12;fontStyle=1;fillColor=#f8cecc;strokeColor=#b85450;" parent="1" vertex="1">
          <mxGeometry x="301.5" y="200.03" width="160" height="80" as="geometry" />
        </mxCell>
        <mxCell id="Lu7zV6Tx2Fdpjb5Isjd1-2" value="조회 서비스" style="text;html=1;align=center;verticalAlign=middle;resizable=0;points=[];autosize=1;fontSize=12;fontStyle=1;" parent="Lu7zV6Tx2Fdpjb5Isjd1-1" vertex="1">
          <mxGeometry x="40" y="41" width="80" height="20" as="geometry" />
        </mxCell>
        <mxCell id="Lu7zV6Tx2Fdpjb5Isjd1-3" value="클라이언트" style="swimlane;fontSize=13;fontStyle=1;fillColor=#f5f5f5;strokeColor=#666666;fontColor=#333333;" parent="1" vertex="1">
          <mxGeometry x="59.5" y="200.03" width="140" height="80" as="geometry" />
        </mxCell>
        <mxCell id="Lu7zV6Tx2Fdpjb5Isjd1-4" value="단건 조회 요청" style="text;html=1;align=center;verticalAlign=middle;resizable=0;points=[];autosize=1;fontSize=12;fontStyle=1;" parent="Lu7zV6Tx2Fdpjb5Isjd1-3" vertex="1">
          <mxGeometry x="26" y="41" width="90" height="20" as="geometry" />
        </mxCell>
        <mxCell id="Lu7zV6Tx2Fdpjb5Isjd1-5" value="Program Repository" style="swimlane;fontSize=12;fontStyle=1;fillColor=#f8cecc;strokeColor=#b85450;" parent="1" vertex="1">
          <mxGeometry x="567.22" y="200.03" width="150" height="80" as="geometry" />
        </mxCell>
        <mxCell id="Lu7zV6Tx2Fdpjb5Isjd1-6" value="&lt;font style=&quot;font-size: 12px&quot;&gt;프로그램 저장소&lt;/font&gt;" style="text;html=1;align=center;verticalAlign=middle;resizable=0;points=[];autosize=1;fontSize=12;fontStyle=1;" parent="Lu7zV6Tx2Fdpjb5Isjd1-5" vertex="1">
          <mxGeometry x="28" y="41" width="100" height="20" as="geometry" />
        </mxCell>
        <mxCell id="Lu7zV6Tx2Fdpjb5Isjd1-7" value="&lt;font style=&quot;font-size: 11px&quot;&gt;Program &lt;/font&gt;&lt;font style=&quot;font-size: 11px&quot;&gt;id&lt;/font&gt;&lt;font style=&quot;font-size: 11px&quot;&gt;&amp;nbsp;&amp;nbsp;&lt;/font&gt;" style="text;html=1;align=center;verticalAlign=middle;whiteSpace=wrap;rounded=0;fontSize=11;fontStyle=1" parent="1" vertex="1">
          <mxGeometry x="214.38" y="229.53" width="71.75" height="9" as="geometry" />
        </mxCell>
        <mxCell id="Lu7zV6Tx2Fdpjb5Isjd1-8" value="Program View Detail  DTO" style="swimlane;fontSize=12;fontStyle=1;fillColor=#dae8fc;strokeColor=#6c8ebf;" parent="1" vertex="1">
          <mxGeometry x="245.5" y="370.03000000000003" width="181.5" height="200" as="geometry" />
        </mxCell>
        <mxCell id="Lu7zV6Tx2Fdpjb5Isjd1-9" value="&lt;font style=&quot;font-size: 12px&quot;&gt;데이터 전달 객체&lt;/font&gt;" style="text;html=1;align=center;verticalAlign=middle;resizable=0;points=[];autosize=1;fontSize=12;fontStyle=1;" parent="Lu7zV6Tx2Fdpjb5Isjd1-8" vertex="1">
          <mxGeometry x="28.75" y="40" width="110" height="20" as="geometry" />
        </mxCell>
        <mxCell id="Lu7zV6Tx2Fdpjb5Isjd1-10" value="id" style="text;html=1;strokeColor=none;fillColor=none;align=center;verticalAlign=middle;whiteSpace=wrap;rounded=0;fontSize=13;" parent="Lu7zV6Tx2Fdpjb5Isjd1-8" vertex="1">
          <mxGeometry x="28.75" y="63" width="40" height="20" as="geometry" />
        </mxCell>
        <mxCell id="Lu7zV6Tx2Fdpjb5Isjd1-11" value="introduction" style="text;html=1;strokeColor=none;fillColor=none;align=center;verticalAlign=middle;whiteSpace=wrap;rounded=0;fontSize=13;" parent="Lu7zV6Tx2Fdpjb5Isjd1-8" vertex="1">
          <mxGeometry x="55.75" y="104" width="40" height="20" as="geometry" />
        </mxCell>
        <mxCell id="Lu7zV6Tx2Fdpjb5Isjd1-12" value="introductionDetail" style="text;html=1;strokeColor=none;fillColor=none;align=center;verticalAlign=middle;whiteSpace=wrap;rounded=0;fontSize=13;" parent="Lu7zV6Tx2Fdpjb5Isjd1-8" vertex="1">
          <mxGeometry x="71.75" y="125" width="40" height="20" as="geometry" />
        </mxCell>
        <mxCell id="Lu7zV6Tx2Fdpjb5Isjd1-13" value="region" style="text;html=1;strokeColor=none;fillColor=none;align=center;verticalAlign=middle;whiteSpace=wrap;rounded=0;fontSize=13;" parent="Lu7zV6Tx2Fdpjb5Isjd1-8" vertex="1">
          <mxGeometry x="40.75" y="145" width="40" height="20" as="geometry" />
        </mxCell>
        <mxCell id="Lu7zV6Tx2Fdpjb5Isjd1-14" value="name" style="text;html=1;strokeColor=none;fillColor=none;align=center;verticalAlign=middle;whiteSpace=wrap;rounded=0;fontSize=13;" parent="Lu7zV6Tx2Fdpjb5Isjd1-8" vertex="1">
          <mxGeometry x="38.75" y="83" width="40" height="20" as="geometry" />
        </mxCell>
        <mxCell id="hzwIlEIKxiyYygUyO-S2-29" value="&lt;font style=&quot;font-size: 11px&quot; color=&quot;#ff0000&quot;&gt;누락된 theme_name&lt;/font&gt;" style="text;html=1;strokeColor=none;fillColor=none;align=left;verticalAlign=middle;whiteSpace=wrap;rounded=0;fontSize=13;" parent="Lu7zV6Tx2Fdpjb5Isjd1-8" vertex="1">
          <mxGeometry x="40.75" y="165" width="129.25" height="20" as="geometry" />
        </mxCell>
        <mxCell id="Lu7zV6Tx2Fdpjb5Isjd1-15" value="&lt;span style=&quot;font-size: 12px&quot;&gt;&lt;font style=&quot;font-size: 12px&quot;&gt;getBy( id )&lt;/font&gt;&lt;/span&gt;" style="text;html=1;strokeColor=none;fillColor=none;align=center;verticalAlign=middle;whiteSpace=wrap;rounded=0;fontSize=12;fontStyle=1" parent="1" vertex="1">
          <mxGeometry x="476.5" y="221.03" width="80" height="17.5" as="geometry" />
        </mxCell>
        <mxCell id="Lu7zV6Tx2Fdpjb5Isjd1-16" value="" style="edgeStyle=segmentEdgeStyle;endArrow=classic;html=1;fontSize=15;" parent="1" edge="1">
          <mxGeometry width="50" height="50" relative="1" as="geometry">
            <mxPoint x="701.72" y="200.03" as="sourcePoint" />
            <mxPoint x="701.72" y="280.03" as="targetPoint" />
            <Array as="points">
              <mxPoint x="701.72" y="180.03" />
              <mxPoint x="761.72" y="180.03" />
              <mxPoint x="761.72" y="300.03" />
              <mxPoint x="701.72" y="300.03" />
            </Array>
          </mxGeometry>
        </mxCell>
        <mxCell id="Lu7zV6Tx2Fdpjb5Isjd1-17" value="&lt;b style=&quot;font-size: 12px;&quot;&gt;&lt;font style=&quot;font-size: 12px;&quot;&gt;findById( id )&lt;/font&gt;&lt;/b&gt;" style="text;html=1;strokeColor=none;fillColor=none;align=center;verticalAlign=middle;whiteSpace=wrap;rounded=0;fontSize=12;" parent="1" vertex="1">
          <mxGeometry x="671.72" y="300.03" width="90" height="27.5" as="geometry" />
        </mxCell>
        <mxCell id="Lu7zV6Tx2Fdpjb5Isjd1-18" value="Program" style="swimlane;fontSize=12;fontStyle=1;fillColor=#fff2cc;strokeColor=#d6b656;" parent="1" vertex="1">
          <mxGeometry x="515" y="370.03000000000003" width="150" height="200" as="geometry" />
        </mxCell>
        <mxCell id="Lu7zV6Tx2Fdpjb5Isjd1-19" value="&lt;font style=&quot;font-size: 12px&quot;&gt;프로그램&amp;nbsp; 객체&lt;/font&gt;" style="text;html=1;align=center;verticalAlign=middle;resizable=0;points=[];autosize=1;fontSize=12;fontStyle=1;" parent="Lu7zV6Tx2Fdpjb5Isjd1-18" vertex="1">
          <mxGeometry x="30" y="40" width="90" height="20" as="geometry" />
        </mxCell>
        <mxCell id="Lu7zV6Tx2Fdpjb5Isjd1-20" value="id" style="text;html=1;strokeColor=none;fillColor=none;align=center;verticalAlign=middle;whiteSpace=wrap;rounded=0;fontSize=13;" parent="Lu7zV6Tx2Fdpjb5Isjd1-18" vertex="1">
          <mxGeometry x="22.25" y="60.5" width="40" height="20" as="geometry" />
        </mxCell>
        <mxCell id="Lu7zV6Tx2Fdpjb5Isjd1-21" value="introduction" style="text;html=1;strokeColor=none;fillColor=none;align=center;verticalAlign=middle;whiteSpace=wrap;rounded=0;fontSize=13;" parent="Lu7zV6Tx2Fdpjb5Isjd1-18" vertex="1">
          <mxGeometry x="49.25" y="101.5" width="40" height="20" as="geometry" />
        </mxCell>
        <mxCell id="Lu7zV6Tx2Fdpjb5Isjd1-22" value="introductionDetail" style="text;html=1;strokeColor=none;fillColor=none;align=center;verticalAlign=middle;whiteSpace=wrap;rounded=0;fontSize=13;" parent="Lu7zV6Tx2Fdpjb5Isjd1-18" vertex="1">
          <mxGeometry x="65.25" y="122.5" width="40" height="20" as="geometry" />
        </mxCell>
        <mxCell id="Lu7zV6Tx2Fdpjb5Isjd1-23" value="region" style="text;html=1;strokeColor=none;fillColor=none;align=center;verticalAlign=middle;whiteSpace=wrap;rounded=0;fontSize=13;" parent="Lu7zV6Tx2Fdpjb5Isjd1-18" vertex="1">
          <mxGeometry x="34.25" y="142.5" width="40" height="20" as="geometry" />
        </mxCell>
        <mxCell id="Lu7zV6Tx2Fdpjb5Isjd1-24" value="name" style="text;html=1;strokeColor=none;fillColor=none;align=center;verticalAlign=middle;whiteSpace=wrap;rounded=0;fontSize=13;" parent="Lu7zV6Tx2Fdpjb5Isjd1-18" vertex="1">
          <mxGeometry x="32.25" y="80.5" width="40" height="20" as="geometry" />
        </mxCell>
        <mxCell id="Lu7zV6Tx2Fdpjb5Isjd1-25" value="theme" style="text;html=1;strokeColor=none;fillColor=none;align=center;verticalAlign=middle;whiteSpace=wrap;rounded=0;fontSize=13;fontColor=#FF0000;" parent="Lu7zV6Tx2Fdpjb5Isjd1-18" vertex="1">
          <mxGeometry x="34.25" y="164.5" width="40" height="20" as="geometry" />
        </mxCell>
        <mxCell id="Lu7zV6Tx2Fdpjb5Isjd1-26" value="&lt;span style=&quot;font-size: 8px&quot;&gt;&lt;font style=&quot;font-size: 8px&quot;&gt;getter&lt;/font&gt;&lt;/span&gt;" style="text;html=1;strokeColor=none;fillColor=none;align=center;verticalAlign=middle;whiteSpace=wrap;rounded=0;fontSize=8;" parent="Lu7zV6Tx2Fdpjb5Isjd1-18" vertex="1">
          <mxGeometry x="-79.51" y="113.13" width="80" height="17.5" as="geometry" />
        </mxCell>
        <mxCell id="Lu7zV6Tx2Fdpjb5Isjd1-28" value="" style="endArrow=classic;html=1;fontSize=9;fontColor=#FF0000;" parent="1" edge="1">
          <mxGeometry relative="1" as="geometry">
            <mxPoint x="209.75" y="247.53" as="sourcePoint" />
            <mxPoint x="289.75" y="247.53" as="targetPoint" />
          </mxGeometry>
        </mxCell>
        <mxCell id="Lu7zV6Tx2Fdpjb5Isjd1-29" value="" style="endArrow=classic;html=1;fontSize=9;fontColor=#FF0000;" parent="1" edge="1">
          <mxGeometry relative="1" as="geometry">
            <mxPoint x="474.25" y="246.53000000000023" as="sourcePoint" />
            <mxPoint x="554.25" y="246.53000000000023" as="targetPoint" />
          </mxGeometry>
        </mxCell>
        <mxCell id="Lu7zV6Tx2Fdpjb5Isjd1-30" value="" style="endArrow=none;dashed=1;html=1;fontSize=12;fontColor=#FF0000;" parent="1" edge="1">
          <mxGeometry width="50" height="50" relative="1" as="geometry">
            <mxPoint x="453.74" y="460.66" as="sourcePoint" />
            <mxPoint x="492.99" y="460.41" as="targetPoint" />
          </mxGeometry>
        </mxCell>
        <mxCell id="Lu7zV6Tx2Fdpjb5Isjd1-32" value="" style="edgeStyle=segmentEdgeStyle;endArrow=classic;html=1;fontSize=3;fontColor=#FF0000;" parent="1" edge="1">
          <mxGeometry width="50" height="50" relative="1" as="geometry">
            <mxPoint x="450.74" y="460.66" as="sourcePoint" />
            <mxPoint x="440.74" y="460.66" as="targetPoint" />
          </mxGeometry>
        </mxCell>
        <mxCell id="Lu7zV6Tx2Fdpjb5Isjd1-33" value="&lt;font style=&quot;font-size: 12px&quot;&gt;new&lt;/font&gt;" style="text;html=1;strokeColor=none;fillColor=none;align=center;verticalAlign=middle;whiteSpace=wrap;rounded=0;fontSize=11;fontStyle=1;" parent="1" vertex="1">
          <mxGeometry x="431" y="439.41" width="80" height="17.5" as="geometry" />
        </mxCell>
        <mxCell id="Lu7zV6Tx2Fdpjb5Isjd1-34" value="&lt;font&gt;&lt;span style=&quot;font-size: 10px ; font-weight: normal&quot;&gt;program&lt;/span&gt;&lt;/font&gt;" style="text;html=1;strokeColor=none;fillColor=none;align=center;verticalAlign=middle;whiteSpace=wrap;rounded=0;fontSize=10;fontStyle=1" parent="1" vertex="1">
          <mxGeometry x="434.49" y="469.41" width="80" height="17.5" as="geometry" />
        </mxCell>
        <mxCell id="Lu7zV6Tx2Fdpjb5Isjd1-35" value="" style="endArrow=none;dashed=1;html=1;fontSize=9;fontColor=#FF0000;" parent="1" edge="1">
          <mxGeometry width="50" height="50" relative="1" as="geometry">
            <mxPoint x="368.75" y="353.91" as="sourcePoint" />
            <mxPoint x="368.7500000000002" y="303.65999999999997" as="targetPoint" />
            <Array as="points" />
          </mxGeometry>
        </mxCell>
        <mxCell id="Lu7zV6Tx2Fdpjb5Isjd1-36" value="" style="endArrow=classic;html=1;fontSize=11;fontColor=#FF0000;" parent="1" edge="1">
          <mxGeometry width="50" height="50" relative="1" as="geometry">
            <mxPoint x="368.74999999999994" y="303.65999999999997" as="sourcePoint" />
            <mxPoint x="368.74999999999994" y="293.65999999999997" as="targetPoint" />
          </mxGeometry>
        </mxCell>
        <mxCell id="Lu7zV6Tx2Fdpjb5Isjd1-37" value="Program 조회 View - 테마 이름 추가&amp;nbsp;" style="rounded=0;whiteSpace=wrap;html=1;fontSize=16;fontStyle=1;" parent="1" vertex="1">
          <mxGeometry x="223.75" y="60" width="336.25" height="60" as="geometry" />
        </mxCell>
        <mxCell id="Lu7zV6Tx2Fdpjb5Isjd1-39" value="" style="endArrow=none;dashed=1;html=1;dashPattern=1 3;strokeWidth=2;fontSize=16;" parent="1" edge="1">
          <mxGeometry width="50" height="50" relative="1" as="geometry">
            <mxPoint x="226.63" y="260.03" as="sourcePoint" />
            <mxPoint x="284.63" y="260.03" as="targetPoint" />
          </mxGeometry>
        </mxCell>
        <mxCell id="Lu7zV6Tx2Fdpjb5Isjd1-40" value="" style="endArrow=classic;html=1;fontSize=16;" parent="1" edge="1">
          <mxGeometry width="50" height="50" relative="1" as="geometry">
            <mxPoint x="220.38" y="260.03" as="sourcePoint" />
            <mxPoint x="210.38" y="260.03" as="targetPoint" />
          </mxGeometry>
        </mxCell>
        <mxCell id="Lu7zV6Tx2Fdpjb5Isjd1-41" value="Response" style="text;html=1;align=center;verticalAlign=middle;whiteSpace=wrap;rounded=0;fontSize=11;fontStyle=1" parent="1" vertex="1">
          <mxGeometry x="236.63" y="270.03" width="40" height="20" as="geometry" />
        </mxCell>
        <mxCell id="Lu7zV6Tx2Fdpjb5Isjd1-42" value="&lt;font style=&quot;font-size: 9px ; font-weight: normal&quot;&gt;(&lt;font style=&quot;font-size: 9px&quot;&gt;DTO&lt;/font&gt;)&lt;/font&gt;" style="text;html=1;align=center;verticalAlign=middle;whiteSpace=wrap;rounded=0;fontSize=6;fontStyle=1" parent="1" vertex="1">
          <mxGeometry x="246.13" y="290.03" width="40" height="10" as="geometry" />
        </mxCell>
        <mxCell id="Lu7zV6Tx2Fdpjb5Isjd1-44" value="&lt;span style=&quot;font-weight: normal&quot;&gt;&lt;font style=&quot;font-size: 9px&quot;&gt;(DTO)&lt;/font&gt;&lt;/span&gt;" style="text;html=1;align=center;verticalAlign=middle;whiteSpace=wrap;rounded=0;fontSize=10;fontStyle=1" parent="1" vertex="1">
          <mxGeometry x="374.95" y="333.78000000000003" width="40" height="6.25" as="geometry" />
        </mxCell>
        <mxCell id="Lu7zV6Tx2Fdpjb5Isjd1-50" value="" style="endArrow=none;dashed=1;html=1;dashPattern=1 3;strokeWidth=2;labelBackgroundColor=#FF3333;fontSize=6;fontColor=#FF0000;" parent="1" edge="1">
          <mxGeometry width="50" height="50" relative="1" as="geometry">
            <mxPoint x="589.5" y="580.03" as="sourcePoint" />
            <mxPoint x="352.5" y="590.03" as="targetPoint" />
            <Array as="points">
              <mxPoint x="589.5" y="615.03" />
              <mxPoint x="352.5" y="615.03" />
            </Array>
          </mxGeometry>
        </mxCell>
        <mxCell id="Lu7zV6Tx2Fdpjb5Isjd1-53" value="" style="endArrow=classic;html=1;labelBackgroundColor=#FF3333;fontSize=6;fontColor=#FF0000;" parent="1" edge="1">
          <mxGeometry width="50" height="50" relative="1" as="geometry">
            <mxPoint x="352.5" y="590.03" as="sourcePoint" />
            <mxPoint x="352.5" y="580.03" as="targetPoint" />
          </mxGeometry>
        </mxCell>
        <mxCell id="Lu7zV6Tx2Fdpjb5Isjd1-54" value="&lt;font style=&quot;font-size: 13px&quot;&gt;&lt;font style=&quot;font-size: 13px&quot;&gt;&lt;b&gt;&lt;font style=&quot;font-size: 13px&quot;&gt;수정 내용 개요&lt;/font&gt;&lt;br&gt;&lt;/b&gt;&lt;/font&gt;&lt;font style=&quot;line-height: 140% ; font-size: 13px&quot;&gt;&lt;br&gt;&lt;font color=&quot;#000000&quot; style=&quot;font-size: 13px&quot;&gt;&lt;font style=&quot;font-size: 13px&quot;&gt;&lt;b&gt;DTO 생성&lt;/b&gt;&lt;/font&gt;&lt;b&gt;시&lt;/b&gt;&lt;/font&gt;&lt;br&gt;&lt;font color=&quot;#000000&quot; style=&quot;font-size: 13px&quot;&gt;Program로 부터&amp;nbsp;&lt;br&gt;&lt;b&gt;theme &lt;/b&gt;객체를&lt;br&gt;불러와&lt;br&gt;&amp;nbsp;DTO &lt;b&gt;속성에 &lt;br&gt;&lt;/b&gt;&lt;/font&gt;&lt;span style=&quot;color: rgb(0 , 0 , 0)&quot;&gt;누락된&amp;nbsp;&amp;nbsp;&lt;br&gt;&lt;/span&gt;&lt;font color=&quot;#000000&quot; style=&quot;font-size: 13px&quot;&gt;&lt;b&gt;theme 이름&lt;/b&gt;을&lt;br&gt;&lt;b&gt;새롭게 추가&lt;/b&gt; 한다&lt;/font&gt;.&amp;nbsp;&lt;/font&gt;&lt;/font&gt;" style="shape=note;size=20;whiteSpace=wrap;html=1;fontSize=6;fontColor=#FF0000;" parent="1" vertex="1">
          <mxGeometry x="52.63" y="370.03000000000003" width="146.87" height="200" as="geometry" />
        </mxCell>
        <mxCell id="Lu7zV6Tx2Fdpjb5Isjd1-55" value="&lt;font style=&quot;font-size: 12px&quot;&gt;theme_name 추가&amp;nbsp;&lt;/font&gt;" style="shape=ext;margin=3;double=1;whiteSpace=wrap;html=1;align=center;fontSize=8;fontColor=#FF0000;fontStyle=1" parent="1" vertex="1">
          <mxGeometry x="409.87" y="650.03" width="130.25" height="40" as="geometry" />
        </mxCell>
        <mxCell id="Lu7zV6Tx2Fdpjb5Isjd1-69" value="Program View Detail DTO" style="swimlane;fontSize=12;fontStyle=1;fillColor=#dae8fc;strokeColor=#6c8ebf;" parent="1" vertex="1">
          <mxGeometry x="92.5" y="765.03" width="180" height="90" as="geometry" />
        </mxCell>
        <mxCell id="Lu7zV6Tx2Fdpjb5Isjd1-70" value="Field 추가 부분" style="text;html=1;align=center;verticalAlign=middle;resizable=0;points=[];autosize=1;fontSize=11;fontStyle=1;" parent="Lu7zV6Tx2Fdpjb5Isjd1-69" vertex="1">
          <mxGeometry x="40" y="35" width="90" height="20" as="geometry" />
        </mxCell>
        <mxCell id="Lu7zV6Tx2Fdpjb5Isjd1-74" value="&lt;b&gt;&lt;font style=&quot;font-size: 13px&quot;&gt;theme_name&lt;/font&gt;&lt;/b&gt;" style="text;html=1;strokeColor=none;fillColor=none;align=center;verticalAlign=middle;whiteSpace=wrap;rounded=0;fontSize=12;fontColor=#FF0000;" parent="Lu7zV6Tx2Fdpjb5Isjd1-69" vertex="1">
          <mxGeometry x="70" y="60" width="40" height="20" as="geometry" />
        </mxCell>
        <mxCell id="Lu7zV6Tx2Fdpjb5Isjd1-78" value="" style="endArrow=none;dashed=1;html=1;fontSize=12;fontColor=#FF0000;" parent="1" edge="1">
          <mxGeometry width="50" height="50" relative="1" as="geometry">
            <mxPoint x="292.25" y="812.53" as="sourcePoint" />
            <mxPoint x="382.5" y="812.78" as="targetPoint" />
          </mxGeometry>
        </mxCell>
        <mxCell id="Lu7zV6Tx2Fdpjb5Isjd1-79" value="" style="edgeStyle=segmentEdgeStyle;endArrow=classic;html=1;fontSize=3;fontColor=#FF0000;" parent="1" edge="1">
          <mxGeometry width="50" height="50" relative="1" as="geometry">
            <mxPoint x="296" y="812.53" as="sourcePoint" />
            <mxPoint x="286" y="812.53" as="targetPoint" />
          </mxGeometry>
        </mxCell>
        <mxCell id="Lu7zV6Tx2Fdpjb5Isjd1-80" value="&lt;font style=&quot;font-size: 13px&quot; color=&quot;#ff3333&quot;&gt;new&lt;/font&gt;" style="text;html=1;strokeColor=none;fillColor=none;align=center;verticalAlign=middle;whiteSpace=wrap;rounded=0;fontSize=11;fontStyle=1" parent="1" vertex="1">
          <mxGeometry x="292.5" y="786.28" width="80" height="17.5" as="geometry" />
        </mxCell>
        <mxCell id="Lu7zV6Tx2Fdpjb5Isjd1-81" value="Program View Service" style="swimlane;fontSize=12;fontStyle=1;fillColor=#f8cecc;strokeColor=#b85450;" parent="1" vertex="1">
          <mxGeometry x="396.5" y="765.03" width="180" height="90" as="geometry" />
        </mxCell>
        <mxCell id="Lu7zV6Tx2Fdpjb5Isjd1-82" value="조회 서비스" style="text;html=1;align=center;verticalAlign=middle;resizable=0;points=[];autosize=1;fontSize=11;fontStyle=1;" parent="Lu7zV6Tx2Fdpjb5Isjd1-81" vertex="1">
          <mxGeometry x="55" y="40" width="70" height="20" as="geometry" />
        </mxCell>
        <mxCell id="Lu7zV6Tx2Fdpjb5Isjd1-86" value="" style="edgeStyle=segmentEdgeStyle;endArrow=classic;html=1;fontSize=15;" parent="1" source="Lu7zV6Tx2Fdpjb5Isjd1-81" target="Lu7zV6Tx2Fdpjb5Isjd1-93" edge="1">
          <mxGeometry width="50" height="50" relative="1" as="geometry">
            <mxPoint x="586.5" y="760.03" as="sourcePoint" />
            <mxPoint x="532.5" y="940.03" as="targetPoint" />
            <Array as="points">
              <mxPoint x="572.5" y="750.03" />
              <mxPoint x="646.5" y="750.03" />
              <mxPoint x="646.5" y="950.03" />
            </Array>
          </mxGeometry>
        </mxCell>
        <mxCell id="Lu7zV6Tx2Fdpjb5Isjd1-88" value="&lt;font style=&quot;font-size: 12px&quot;&gt;Repository&lt;/font&gt;" style="rounded=1;whiteSpace=wrap;html=1;fontSize=8;fontStyle=1;fillColor=#f8cecc;strokeColor=#b85450;" parent="1" vertex="1">
          <mxGeometry x="611.5" y="777.53" width="71" height="42.5" as="geometry" />
        </mxCell>
        <mxCell id="Lu7zV6Tx2Fdpjb5Isjd1-89" value="&lt;font style=&quot;font-size: 11px&quot;&gt;findById( id )&lt;/font&gt;" style="text;html=1;strokeColor=none;fillColor=none;align=center;verticalAlign=middle;whiteSpace=wrap;rounded=0;fontSize=10;fontStyle=1" parent="1" vertex="1">
          <mxGeometry x="642.5" y="820.03" width="90" height="27.5" as="geometry" />
        </mxCell>
        <mxCell id="Lu7zV6Tx2Fdpjb5Isjd1-90" value="&lt;font style=&quot;font-size: 11px&quot;&gt;getBy( id )&lt;/font&gt;" style="text;html=1;strokeColor=none;fillColor=none;align=center;verticalAlign=middle;whiteSpace=wrap;rounded=0;fontSize=10;fontStyle=1" parent="1" vertex="1">
          <mxGeometry x="560.25" y="720.03" width="90" height="27.5" as="geometry" />
        </mxCell>
        <mxCell id="Lu7zV6Tx2Fdpjb5Isjd1-91" value="&lt;font style=&quot;font-size: 12px&quot;&gt;Program&lt;/font&gt;" style="rounded=1;whiteSpace=wrap;html=1;fontSize=8;fontStyle=1;fillColor=#fff2cc;strokeColor=#d6b656;" parent="1" vertex="1">
          <mxGeometry x="611.5" y="870.03" width="71" height="40" as="geometry" />
        </mxCell>
        <mxCell id="Lu7zV6Tx2Fdpjb5Isjd1-93" value="&lt;p style=&quot;line-height: 160% ; font-size: 12px&quot;&gt;&lt;font style=&quot;font-size: 12px&quot;&gt;&lt;br&gt;&lt;/font&gt;&lt;/p&gt;&lt;p style=&quot;line-height: 160% ; font-size: 12px&quot;&gt;&lt;font style=&quot;font-size: 12px&quot;&gt;&lt;br&gt;&lt;/font&gt;&lt;/p&gt;&lt;p style=&quot;line-height: 160% ; font-size: 12px&quot;&gt;&lt;font style=&quot;font-size: 12px&quot;&gt;Dependency Injection &lt;b&gt;추가 부분 &lt;/b&gt;&amp;nbsp;&lt;br&gt;String &lt;font color=&quot;#ff9933&quot; style=&quot;font-size: 12px&quot;&gt;&lt;b&gt;theme_name&lt;/b&gt;&lt;/font&gt;&lt;/font&gt;&lt;/p&gt;&lt;p style=&quot;line-height: 160% ; font-size: 12px&quot;&gt;&lt;br&gt;&lt;/p&gt;" style="rounded=1;whiteSpace=wrap;html=1;fontSize=10;fontColor=#000000;" parent="1" vertex="1">
          <mxGeometry x="240.25" y="890.03" width="290" height="110" as="geometry" />
        </mxCell>
        <mxCell id="Lu7zV6Tx2Fdpjb5Isjd1-94" value="&lt;font style=&quot;font-size: 12px&quot;&gt;Program View Detail DTO&amp;nbsp;&lt;/font&gt;" style="rounded=1;whiteSpace=wrap;html=1;fontSize=10;fontStyle=1;fillColor=#dae8fc;strokeColor=#6c8ebf;" parent="1" vertex="1">
          <mxGeometry x="240.25" y="875.03" width="290" height="30" as="geometry" />
        </mxCell>
        <mxCell id="Lu7zV6Tx2Fdpjb5Isjd1-95" value="&lt;font style=&quot;font-size: 13px&quot;&gt;&lt;font color=&quot;#000000&quot; style=&quot;font-size: 13px&quot;&gt;program.getTheme().&lt;/font&gt;&lt;font color=&quot;#ff9933&quot; style=&quot;font-size: 13px&quot;&gt;getName()&lt;/font&gt;&lt;/font&gt;" style="text;html=1;strokeColor=none;fillColor=none;align=center;verticalAlign=middle;whiteSpace=wrap;rounded=0;fontSize=11;fontStyle=1;fontColor=#FF0000;" parent="1" vertex="1">
          <mxGeometry x="556.5" y="950.03" width="216" height="40" as="geometry" />
        </mxCell>
        <mxCell id="Lu7zV6Tx2Fdpjb5Isjd1-107" value="" style="endArrow=none;dashed=1;html=1;labelBackgroundColor=#FF3333;fontSize=11;fontColor=#FF0000;" parent="1" edge="1">
          <mxGeometry width="50" height="50" relative="1" as="geometry">
            <mxPoint x="462.5" y="970.03" as="sourcePoint" />
            <mxPoint x="530.25" y="950.03" as="targetPoint" />
            <Array as="points">
              <mxPoint x="482.75" y="970.03" />
              <mxPoint x="492.75" y="950.03" />
            </Array>
          </mxGeometry>
        </mxCell>
        <mxCell id="Lu7zV6Tx2Fdpjb5Isjd1-108" value="" style="endArrow=classic;html=1;labelBackgroundColor=#FF3333;fontSize=11;fontColor=#FF0000;" parent="1" edge="1">
          <mxGeometry width="50" height="50" relative="1" as="geometry">
            <mxPoint x="457" y="970.03" as="sourcePoint" />
            <mxPoint x="452.5" y="970.03" as="targetPoint" />
          </mxGeometry>
        </mxCell>
        <mxCell id="Lu7zV6Tx2Fdpjb5Isjd1-109" value="" style="endArrow=none;dashed=1;html=1;labelBackgroundColor=#FF3333;fontSize=11;fontColor=#FF0000;" parent="1" edge="1">
          <mxGeometry width="50" height="50" relative="1" as="geometry">
            <mxPoint x="312.5" y="970.03" as="sourcePoint" />
            <mxPoint x="182.5" y="870.03" as="targetPoint" />
            <Array as="points">
              <mxPoint x="182.5" y="970.03" />
            </Array>
          </mxGeometry>
        </mxCell>
        <mxCell id="Lu7zV6Tx2Fdpjb5Isjd1-111" value="" style="endArrow=classic;html=1;labelBackgroundColor=#FF3333;fontSize=11;fontColor=#FF0000;" parent="1" edge="1">
          <mxGeometry width="50" height="50" relative="1" as="geometry">
            <mxPoint x="182.38" y="870.03" as="sourcePoint" />
            <mxPoint x="182.38" y="860.03" as="targetPoint" />
          </mxGeometry>
        </mxCell>
        <mxCell id="Lu7zV6Tx2Fdpjb5Isjd1-112" value="&lt;font style=&quot;font-size: 13px&quot;&gt;&lt;font color=&quot;#000000&quot; style=&quot;font-size: 13px&quot;&gt;This&lt;/font&gt;.theme_name&amp;nbsp;&amp;nbsp;&lt;/font&gt;" style="text;html=1;strokeColor=none;fillColor=none;align=center;verticalAlign=middle;whiteSpace=wrap;rounded=0;fontSize=11;fontStyle=1;fontColor=#FF0000;" parent="1" vertex="1">
          <mxGeometry x="62.5" y="940.03" width="111.25" height="40" as="geometry" />
        </mxCell>
        <mxCell id="Lu7zV6Tx2Fdpjb5Isjd1-115" value="&lt;font style=&quot;font-size: 13px&quot;&gt;&lt;font color=&quot;#ff8000&quot; style=&quot;font-size: 13px&quot;&gt;=&lt;/font&gt; &lt;font color=&quot;#ff9933&quot; style=&quot;font-size: 13px&quot;&gt;theme_name&lt;/font&gt;&lt;/font&gt;" style="text;html=1;strokeColor=none;fillColor=none;align=center;verticalAlign=middle;whiteSpace=wrap;rounded=0;fontSize=12;fontStyle=1;fontColor=#FF0000;" parent="1" vertex="1">
          <mxGeometry x="112.5" y="970.03" width="111.25" height="30" as="geometry" />
        </mxCell>
        <mxCell id="Lu7zV6Tx2Fdpjb5Isjd1-118" value="" style="endArrow=classic;html=1;labelBackgroundColor=#FF3333;fontSize=11;fontColor=#FF0000;" parent="1" edge="1">
          <mxGeometry width="50" height="50" relative="1" as="geometry">
            <mxPoint x="474.79" y="690.03" as="sourcePoint" />
            <mxPoint x="475.5" y="760.03" as="targetPoint" />
          </mxGeometry>
        </mxCell>
        <mxCell id="Lu7zV6Tx2Fdpjb5Isjd1-122" value="" style="endArrow=none;html=1;labelBackgroundColor=#FF3333;fontSize=11;fontColor=#FF0000;exitX=0.5;exitY=0;exitDx=0;exitDy=0;" parent="1" source="Lu7zV6Tx2Fdpjb5Isjd1-55" edge="1">
          <mxGeometry width="50" height="50" relative="1" as="geometry">
            <mxPoint x="474.5" y="645.03" as="sourcePoint" />
            <mxPoint x="474.5" y="620.03" as="targetPoint" />
          </mxGeometry>
        </mxCell>
        <mxCell id="Lu7zV6Tx2Fdpjb5Isjd1-123" value="" style="endArrow=none;dashed=1;html=1;labelBackgroundColor=#FF3333;fontSize=11;fontColor=#FF0000;entryX=0.398;entryY=1.002;entryDx=0;entryDy=0;entryPerimeter=0;" parent="1" target="Lu7zV6Tx2Fdpjb5Isjd1-55" edge="1">
          <mxGeometry width="50" height="50" relative="1" as="geometry">
            <mxPoint x="182.25" y="763.1599999999999" as="sourcePoint" />
            <mxPoint x="462.5" y="710.03" as="targetPoint" />
            <Array as="points">
              <mxPoint x="182.5" y="730.03" />
              <mxPoint x="462.5" y="730.03" />
            </Array>
          </mxGeometry>
        </mxCell>
        <mxCell id="Lu7zV6Tx2Fdpjb5Isjd1-124" value="" style="endArrow=none;dashed=1;html=1;labelBackgroundColor=#FF3333;fontSize=11;fontColor=#FF0000;" parent="1" edge="1">
          <mxGeometry width="50" height="50" relative="1" as="geometry">
            <mxPoint x="462.5" y="650.03" as="sourcePoint" />
            <mxPoint x="462.5" y="620.03" as="targetPoint" />
          </mxGeometry>
        </mxCell>
        <mxCell id="Lu7zV6Tx2Fdpjb5Isjd1-125" value="" style="endArrow=classic;html=1;labelBackgroundColor=#FF3333;fontSize=11;fontColor=#FF0000;labelBorderColor=none;" parent="1" edge="1">
          <mxGeometry width="50" height="50" relative="1" as="geometry">
            <mxPoint x="462.5" y="630.03" as="sourcePoint" />
            <mxPoint x="462.5" y="620.03" as="targetPoint" />
          </mxGeometry>
        </mxCell>
        <mxCell id="Lu7zV6Tx2Fdpjb5Isjd1-128" value="&lt;font style=&quot;font-size: 15px&quot;&gt;&lt;br&gt;&lt;br&gt;&lt;span style=&quot;color: rgb(255, 51, 51); font-family: helvetica; font-style: normal; font-weight: 700; letter-spacing: normal; text-indent: 0px; text-transform: none; word-spacing: 0px; background-color: rgb(248, 249, 250); display: inline; float: none;&quot;&gt;Constructor&lt;/span&gt;&lt;br&gt;&lt;/font&gt;" style="rounded=1;whiteSpace=wrap;html=1;fontSize=12;fontColor=#FF0000;align=center;verticalAlign=bottom;" parent="1" vertex="1">
          <mxGeometry x="332.25" y="904.03" width="106" height="30" as="geometry" />
        </mxCell>
        <mxCell id="E90OsRMZdrKgKirHxCRS-11" value="Theme" style="swimlane;fontSize=12;fontStyle=1;fillColor=#fff2cc;strokeColor=#d6b656;" parent="1" vertex="1">
          <mxGeometry x="692.5" y="370.03000000000003" width="110.5" height="120" as="geometry" />
        </mxCell>
        <mxCell id="E90OsRMZdrKgKirHxCRS-12" value="테마 객체" style="text;html=1;align=center;verticalAlign=middle;resizable=0;points=[];autosize=1;fontSize=12;fontStyle=1;" parent="E90OsRMZdrKgKirHxCRS-11" vertex="1">
          <mxGeometry x="15" y="39.5" width="70" height="20" as="geometry" />
        </mxCell>
        <mxCell id="E90OsRMZdrKgKirHxCRS-13" value="id" style="text;html=1;strokeColor=none;fillColor=none;align=center;verticalAlign=middle;whiteSpace=wrap;rounded=0;fontSize=13;" parent="E90OsRMZdrKgKirHxCRS-11" vertex="1">
          <mxGeometry x="22" y="64.5" width="40" height="10" as="geometry" />
        </mxCell>
        <mxCell id="E90OsRMZdrKgKirHxCRS-17" value="name" style="text;html=1;strokeColor=none;fillColor=none;align=center;verticalAlign=middle;whiteSpace=wrap;rounded=0;fontSize=13;" parent="E90OsRMZdrKgKirHxCRS-11" vertex="1">
          <mxGeometry x="32" y="80.5" width="40" height="20" as="geometry" />
        </mxCell>
        <mxCell id="hzwIlEIKxiyYygUyO-S2-23" value="Entity" style="text;strokeColor=none;fillColor=none;spacingLeft=4;spacingRight=4;overflow=hidden;rotatable=0;points=[[0,0.5],[1,0.5]];portConstraint=eastwest;fontSize=9;fontColor=#FF8000;fontStyle=1" parent="E90OsRMZdrKgKirHxCRS-11" vertex="1">
          <mxGeometry x="-4" y="-19" width="38.5" height="24" as="geometry" />
        </mxCell>
        <mxCell id="E90OsRMZdrKgKirHxCRS-21" value="" style="edgeStyle=entityRelationEdgeStyle;fontSize=12;html=1;endArrow=ERmandOne;startArrow=ERoneToMany;startFill=0;endFill=0;" parent="1" edge="1">
          <mxGeometry width="100" height="100" relative="1" as="geometry">
            <mxPoint x="665" y="439.41" as="sourcePoint" />
            <mxPoint x="705" y="439.41" as="targetPoint" />
          </mxGeometry>
        </mxCell>
        <mxCell id="E90OsRMZdrKgKirHxCRS-30" value="" style="endArrow=none;dashed=1;html=1;startArrow=classic;startFill=1;" parent="1" edge="1">
          <mxGeometry width="50" height="50" relative="1" as="geometry">
            <mxPoint x="600" y="360.03000000000003" as="sourcePoint" />
            <mxPoint x="640.12" y="290.03" as="targetPoint" />
            <Array as="points">
              <mxPoint x="600" y="320.03000000000003" />
              <mxPoint x="640" y="320.03000000000003" />
            </Array>
          </mxGeometry>
        </mxCell>
        <mxCell id="hzwIlEIKxiyYygUyO-S2-25" value="DTO" style="text;strokeColor=none;fillColor=none;spacingLeft=4;spacingRight=4;overflow=hidden;rotatable=0;points=[[0,0.5],[1,0.5]];portConstraint=eastwest;fontSize=9;fontColor=#3333FF;fontStyle=1" parent="1" vertex="1">
          <mxGeometry x="243.13" y="352.00000000000006" width="41" height="14.03" as="geometry" />
        </mxCell>
        <mxCell id="hzwIlEIKxiyYygUyO-S2-26" value="Service" style="text;strokeColor=none;fillColor=none;spacingLeft=4;spacingRight=4;overflow=hidden;rotatable=0;points=[[0,0.5],[1,0.5]];portConstraint=eastwest;fontSize=9;fontColor=#FF6666;fontStyle=1" parent="1" vertex="1">
          <mxGeometry x="297.5" y="180.06" width="48.5" height="14.03" as="geometry" />
        </mxCell>
        <mxCell id="hzwIlEIKxiyYygUyO-S2-27" value="Repository" style="text;strokeColor=none;fillColor=none;spacingLeft=4;spacingRight=4;overflow=hidden;rotatable=0;points=[[0,0.5],[1,0.5]];portConstraint=eastwest;fontSize=8;fontColor=#FF6666;fontStyle=1" parent="1" vertex="1">
          <mxGeometry x="564.22" y="180.06" width="55.78" height="14.03" as="geometry" />
        </mxCell>
        <mxCell id="hzwIlEIKxiyYygUyO-S2-24" value="Entity" style="text;strokeColor=none;fillColor=none;spacingLeft=4;spacingRight=4;overflow=hidden;rotatable=0;points=[[0,0.5],[1,0.5]];portConstraint=eastwest;fontSize=9;fontColor=#FF8000;fontStyle=1" parent="1" vertex="1">
          <mxGeometry x="511" y="352.00000000000006" width="34.51" height="14.03" as="geometry" />
        </mxCell>
        <mxCell id="hzwIlEIKxiyYygUyO-S2-28" value="&lt;font style=&quot;font-size: 11px&quot;&gt;return&lt;/font&gt;" style="text;html=1;align=center;verticalAlign=middle;whiteSpace=wrap;rounded=0;fontSize=10;fontStyle=1" parent="1" vertex="1">
          <mxGeometry x="374.95" y="321.28000000000003" width="40" height="6.25" as="geometry" />
        </mxCell>
        <mxCell id="hzwIlEIKxiyYygUyO-S2-30" value="DTO" style="text;strokeColor=none;fillColor=none;spacingLeft=4;spacingRight=4;overflow=hidden;rotatable=0;points=[[0,0.5],[1,0.5]];portConstraint=eastwest;fontSize=9;fontColor=#3333FF;fontStyle=1" parent="1" vertex="1">
          <mxGeometry x="89.5" y="746.53" width="41" height="14.03" as="geometry" />
        </mxCell>
        <mxCell id="hzwIlEIKxiyYygUyO-S2-31" value="Service" style="text;strokeColor=none;fillColor=none;spacingLeft=4;spacingRight=4;overflow=hidden;rotatable=0;points=[[0,0.5],[1,0.5]];portConstraint=eastwest;fontSize=9;fontColor=#FF6666;fontStyle=1" parent="1" vertex="1">
          <mxGeometry x="389.75" y="746.53" width="48.5" height="14.03" as="geometry" />
        </mxCell>
        <mxCell id="hzwIlEIKxiyYygUyO-S2-32" value="DTO" style="text;strokeColor=none;fillColor=none;spacingLeft=4;spacingRight=4;overflow=hidden;rotatable=0;points=[[0,0.5],[1,0.5]];portConstraint=eastwest;fontSize=9;fontColor=#3333FF;fontStyle=1" parent="1" vertex="1">
          <mxGeometry x="235.63" y="856" width="41" height="14.03" as="geometry" />
        </mxCell>
      </root>
    </mxGraphModel>
  </diagram>
</mxfile>
